2 Fast 2 Furious 2003 1080p Rip med danske undertekster.
Det er i mp4 format så det er lige til at smide på ens ps3 mm. :)


Trailer :http://www.lovefilm.dk/film/2-Fast-2-Furious/412/


Brian O'Conner har mistet sit job, efter at han har ladet sin ven, Dom Toretto, en "streetracende" forbryderchef, flygte fra lovens lange arm. Nu er han tilbage i Miami med sin gamle ven, Roman Pearce. Brian arbejder under dække for politiet for at undgå at blive straffet for sine handlinger. Han hjælper den pragtfulde Monica Fuentes med at finde en lyssky Miami forretningsmand. Og han kører "streetracing" igen - denne gang med livet som indsats? 


Media Info:


General
Format                           : MPEG-4
Format profile                   : Base Media / Version 2
Codec ID                         : mp42
File size                        : 8.34 GiB
Duration                         : 1h 47mn
Overall bit rate                 : 11.1 Mbps
Encoded date                     : UTC 2011-09-01 16:19:48
Tagged date                      : UTC 2011-09-01 17:03:51

Video
ID                               : 1
Format                           : AVC
Format/Info                      : Advanced Video Codec
Format profile                   : High@L4.1
Format settings, CABAC           : Yes
Format settings, ReFrames        : 2 frames
Codec ID                         : avc1
Codec ID/Info                    : Advanced Video Coding
Duration                         : 1h 47mn
Bit rate mode                    : Variable
Bit rate                         : 10.6 Mbps
Width                            : 1 920 pixels
Height                           : 816 pixels
Display aspect ratio             : 2.35:1
Frame rate mode                  : Variable
Frame rate                       : 23.976 fps
Minimum frame rate               : 23.974 fps
Maximum frame rate               : 23.981 fps
Color space                      : YUV
Chroma subsampling               : 4:2:0
Bit depth                        : 8 bits
Scan type                        : Progressive
Bits/(Pixel*Frame)               : 0.282
Stream size                      : 7.96 GiB (95%)
Writing library                  : x264 core
Encoded date                     : UTC 2011-09-01 16:19:48
Tagged date                      : UTC 2011-09-01 17:03:44
Color primaries                  : BT.709-5, BT.1361, IEC 61966-2-4, SMPTE RP177
Transfer characteristics         : BT.709-5, BT.1361
Matrix coefficients              : BT.709-5, BT.1361, IEC 61966-2-4 709, SMPTE RP177

Audio
ID                               : 2
Format                           : AAC
Format/Info                      : Advanced Audio Codec
Format profile                   : LC
Codec ID                         : 40
Duration                         : 1h 47mn
Bit rate mode                    : Variable
Bit rate                         : 495 Kbps
Maximum bit rate                 : 636 Kbps
Channel(s)                       : 6 channels
Channel positions                : Front: L C R, Side: L R, LFE
Sampling rate                    : 48.0 KHz
Compression mode                 : Lossy
Stream size                      : 381 MiB (4%)
Encoded date                     : UTC 2011-09-01 16:19:48
Tagged date                      : UTC 2011-09-01 17:03:23

